<svg width="781" height="876" viewBox="0 0 781 876" fill="none" xmlns="http://www.w3.org/2000/svg">
<rect width="781" height="876" fill="white"/>
<circle cx="681" cy="601" r="5" fill="#0B92F2"/>
<circle cx="659" cy="623" r="5" fill="#0B92F2"/>
<circle cx="659" cy="647" r="5" fill="#0B92F2"/>
<circle cx="559" cy="805" r="5" fill="#0B92F2"/>
<circle cx="386" cy="828" r="5" fill="#0B92F2"/>
<circle cx="559" cy="838" r="5" fill="#0B92F2"/>
<circle cx="623" cy="805" r="5" fill="#0B92F2"/>
<circle cx="269" cy="289" r="5" fill="#0B92F2"/>
<circle cx="155" cy="415" r="5" fill="#0B92F2"/>
<circle cx="412" cy="596" r="5" fill="#0B92F2"/>
<circle cx="363" cy="501" r="5" fill="#0B92F2"/>
<circle cx="441" cy="623" r="5" fill="#0B92F2"/>
<circle cx="412" cy="721" r="5" fill="#0B92F2"/>
<circle cx="671" cy="669" r="5" fill="#0B92F2"/>
<circle cx="729" cy="460" r="5" fill="#0B92F2"/>
<circle cx="618" cy="284" r="5" fill="#0B92F2"/>
<circle cx="637" cy="191" r="5" fill="#0B92F2"/>
<circle cx="613" cy="191" r="5" fill="#0B92F2"/>
<circle cx="588" cy="274" r="5" fill="#0B92F2"/>
</svg>
