<svg width="414" height="28" viewBox="0 0 414 28" fill="none" xmlns="http://www.w3.org/2000/svg">
<path d="M9.86 1.12C11.36 1.12 12.73 1.44 13.97 2.08C15.21 2.7 16.19 3.59 16.91 4.75C17.63 5.89 17.99 7.22 17.99 8.74H13.61C13.61 7.44 13.23 6.46 12.47 5.8C11.71 5.14 10.75 4.81 9.59 4.81C8.33 4.81 7.3 5.23 6.5 6.07C5.7 6.89 5.3 8.06 5.3 9.58V13.84C5.3 15.36 5.71 16.54 6.53 17.38C7.37 18.2 8.42 18.61 9.68 18.61C10.86 18.61 11.81 18.28 12.53 17.62C13.27 16.94 13.64 15.98 13.64 14.74V14.17H8.99V10.81H17.99V17.92C17.99 19.44 18.05 20.8 18.17 22H15.62L14.9 19.69C14.26 20.51 13.42 21.15 12.38 21.61C11.36 22.07 10.27 22.3 9.11 22.3H8.96C7.32 22.3 5.85 21.93 4.55 21.19C3.27 20.45 2.26 19.39 1.52 18.01C0.8 16.63 0.44 15.02 0.44 13.18V10.24C0.44 8.4 0.82 6.79 1.58 5.41C2.34 4.03 3.4 2.97 4.76 2.23C6.14 1.49 7.7 1.12 9.44 1.12H9.86ZM29.2466 6.37C30.4866 6.37 31.6366 6.63 32.6966 7.15C33.7566 7.65 34.6066 8.39 35.2466 9.37C35.8866 10.33 36.2066 11.47 36.2066 12.79V15.07H25.7066C25.7066 17.89 26.8066 19.3 29.0066 19.3C29.9266 19.3 30.6466 19.05 31.1666 18.55C31.7066 18.03 31.9766 17.27 31.9766 16.27H36.1766C36.1766 17.61 35.8566 18.74 35.2166 19.66C34.5766 20.56 33.7266 21.23 32.6666 21.67C31.6266 22.09 30.4866 22.3 29.2466 22.3H28.7666C27.3466 22.3 26.0666 22 24.9266 21.4C23.7866 20.8 22.8866 19.94 22.2266 18.82C21.5866 17.68 21.2666 16.33 21.2666 14.77V13.9C21.2666 12.36 21.5966 11.02 22.2566 9.88C22.9166 8.74 23.8066 7.87 24.9266 7.27C26.0666 6.67 27.3466 6.37 28.7666 6.37H29.2466ZM28.7966 9.37C27.9166 9.37 27.1966 9.68 26.6366 10.3C26.0966 10.92 25.7866 11.71 25.7066 12.67H31.7666C31.7666 11.65 31.5266 10.85 31.0466 10.27C30.5866 9.67 29.8366 9.37 28.7966 9.37ZM48.1161 6.37C49.6761 6.37 50.9561 6.79 51.9561 7.63C52.9761 8.47 53.4861 9.69 53.4861 11.29V22H49.1061V12.25C49.1061 11.47 48.8761 10.83 48.4161 10.33C47.9761 9.81 47.4061 9.55 46.7061 9.55C45.9261 9.55 45.2561 9.85 44.6961 10.45C44.1361 11.03 43.8561 11.74 43.8561 12.58V22H39.4761V6.67H42.7461L43.2261 8.92C44.4861 7.22 46.1161 6.37 48.1161 6.37ZM64.6665 6.37C65.9065 6.37 67.0565 6.63 68.1165 7.15C69.1765 7.65 70.0265 8.39 70.6665 9.37C71.3065 10.33 71.6265 11.47 71.6265 12.79V15.07H61.1265C61.1265 17.89 62.2265 19.3 64.4265 19.3C65.3465 19.3 66.0665 19.05 66.5865 18.55C67.1265 18.03 67.3965 17.27 67.3965 16.27H71.5965C71.5965 17.61 71.2765 18.74 70.6365 19.66C69.9965 20.56 69.1465 21.23 68.0865 21.67C67.0465 22.09 65.9065 22.3 64.6665 22.3H64.1865C62.7665 22.3 61.4865 22 60.3465 21.4C59.2065 20.8 58.3065 19.94 57.6465 18.82C57.0065 17.68 56.6865 16.33 56.6865 14.77V13.9C56.6865 12.36 57.0165 11.02 57.6765 9.88C58.3365 8.74 59.2265 7.87 60.3465 7.27C61.4865 6.67 62.7665 6.37 64.1865 6.37H64.6665ZM64.2165 9.37C63.3365 9.37 62.6165 9.68 62.0565 10.3C61.5165 10.92 61.2065 11.71 61.1265 12.67H67.1865C67.1865 11.65 66.9465 10.85 66.4665 10.27C66.0065 9.67 65.2565 9.37 64.2165 9.37ZM82.966 6.37C84.346 6.37 85.406 6.8 86.146 7.66C86.906 8.52 87.286 9.66 87.286 11.08C87.286 11.54 87.246 12.05 87.166 12.61H83.506V11.92C83.506 11.3 83.336 10.77 82.996 10.33C82.656 9.87 82.116 9.64 81.376 9.64C80.676 9.64 80.136 9.89 79.756 10.39C79.396 10.89 79.216 11.6 79.216 12.52V22H74.896V6.67H78.136L78.676 8.92C78.756 8.7 78.956 8.39 79.276 7.99C79.616 7.59 80.096 7.22 80.716 6.88C81.356 6.54 82.106 6.37 82.966 6.37ZM96.6538 6.37C98.8138 6.37 100.454 6.8 101.574 7.66C102.694 8.5 103.254 9.66 103.254 11.14V18.22C103.254 18.58 103.334 18.85 103.494 19.03C103.674 19.21 103.884 19.3 104.124 19.3C104.324 19.3 104.544 19.26 104.784 19.18C105.024 19.1 105.214 19.03 105.354 18.97V21.67C104.614 22.09 103.734 22.3 102.714 22.3C101.614 22.3 100.774 22.08 100.194 21.64C99.6138 21.18 99.2738 20.54 99.1738 19.72C97.7738 21.44 96.0538 22.3 94.0138 22.3C92.4938 22.3 91.2438 21.99 90.2638 21.37C89.2838 20.75 88.7938 19.57 88.7938 17.83C88.7938 16.41 89.1938 15.33 89.9938 14.59C90.8138 13.83 91.9438 13.32 93.3838 13.06C94.8238 12.8 96.6838 12.67 98.9638 12.67V11.65C98.9638 10.97 98.7438 10.42 98.3038 10C97.8838 9.58 97.1938 9.37 96.2338 9.37C95.6738 9.37 95.1938 9.47 94.7938 9.67C94.3938 9.85 94.0838 10.08 93.8638 10.36C93.6638 10.64 93.5638 10.9 93.5638 11.14V11.38H89.3338C89.2938 11.14 89.2738 10.96 89.2738 10.84C89.2738 9.98 89.5538 9.21 90.1138 8.53C90.6938 7.85 91.4938 7.32 92.5138 6.94C93.5338 6.56 94.7038 6.37 96.0238 6.37H96.6538ZM98.9638 15.13C97.0638 15.13 95.6438 15.32 94.7038 15.7C93.7838 16.06 93.3238 16.66 93.3238 17.5C93.3238 18.16 93.5038 18.63 93.8638 18.91C94.2438 19.17 94.8138 19.3 95.5738 19.3C96.0938 19.3 96.6138 19.16 97.1338 18.88C97.6538 18.6 98.0838 18.2 98.4238 17.68C98.7838 17.16 98.9638 16.58 98.9638 15.94V15.13ZM111.883 0.399999V22H107.503V0.399999H111.883ZM134.924 15.01H135.044L139.844 1.42H147.314V22H142.694V6.85H142.544L137.204 22H132.344L127.004 6.85H126.854V22H122.654V1.42H130.124L134.924 15.01ZM158.065 6.37C159.305 6.37 160.455 6.63 161.515 7.15C162.575 7.65 163.425 8.39 164.065 9.37C164.705 10.33 165.025 11.47 165.025 12.79V15.07H154.525C154.525 17.89 155.625 19.3 157.825 19.3C158.745 19.3 159.465 19.05 159.985 18.55C160.525 18.03 160.795 17.27 160.795 16.27H164.995C164.995 17.61 164.675 18.74 164.035 19.66C163.395 20.56 162.545 21.23 161.485 21.67C160.445 22.09 159.305 22.3 158.065 22.3H157.585C156.165 22.3 154.885 22 153.745 21.4C152.605 20.8 151.705 19.94 151.045 18.82C150.405 17.68 150.085 16.33 150.085 14.77V13.9C150.085 12.36 150.415 11.02 151.075 9.88C151.735 8.74 152.625 7.87 153.745 7.27C154.885 6.67 156.165 6.37 157.585 6.37H158.065ZM157.615 9.37C156.735 9.37 156.015 9.68 155.455 10.3C154.915 10.92 154.605 11.71 154.525 12.67H160.585C160.585 11.65 160.345 10.85 159.865 10.27C159.405 9.67 158.655 9.37 157.615 9.37ZM173.514 6.37C174.474 6.37 175.314 6.57 176.034 6.97C176.774 7.37 177.364 7.86 177.804 8.44V0.399999H182.184V22H178.734L178.284 20.08C177.164 21.56 175.724 22.3 173.964 22.3C172.764 22.3 171.684 22.01 170.724 21.43C169.764 20.85 169.004 19.97 168.444 18.79C167.884 17.61 167.604 16.15 167.604 14.41V14.08C167.604 12.42 167.864 11.01 168.384 9.85C168.904 8.69 169.604 7.82 170.484 7.24C171.384 6.66 172.394 6.37 173.514 6.37ZM174.924 9.55C174.084 9.55 173.394 9.86 172.854 10.48C172.314 11.1 172.044 12 172.044 13.18V15.67C172.044 16.83 172.314 17.73 172.854 18.37C173.394 18.99 174.084 19.3 174.924 19.3C175.764 19.3 176.454 18.99 176.994 18.37C177.534 17.73 177.804 16.83 177.804 15.67V13.18C177.804 12 177.534 11.1 176.994 10.48C176.454 9.86 175.764 9.55 174.924 9.55ZM190.546 3.85H186.106V0.399999H190.546V3.85ZM190.516 6.67V22H186.136V6.67H190.516ZM201.596 6.37C202.776 6.37 203.866 6.63 204.866 7.15C205.886 7.65 206.696 8.39 207.296 9.37C207.916 10.33 208.226 11.47 208.226 12.79H203.876C203.876 11.75 203.646 10.92 203.186 10.3C202.726 9.68 202.046 9.37 201.146 9.37C200.246 9.37 199.536 9.73 199.016 10.45C198.496 11.15 198.236 12.04 198.236 13.12V15.79C198.236 16.79 198.496 17.63 199.016 18.31C199.536 18.97 200.236 19.3 201.116 19.3C202.036 19.3 202.756 19.02 203.276 18.46C203.816 17.88 204.086 17.03 204.086 15.91H208.226C208.226 17.33 207.916 18.52 207.296 19.48C206.696 20.44 205.896 21.15 204.896 21.61C203.896 22.07 202.796 22.3 201.596 22.3H201.116C198.876 22.3 197.096 21.64 195.776 20.32C194.456 18.98 193.796 17.13 193.796 14.77V13.9C193.796 12.34 194.106 11 194.726 9.88C195.366 8.74 196.236 7.87 197.336 7.27C198.436 6.67 199.696 6.37 201.116 6.37H201.596ZM218.587 6.37C220.747 6.37 222.387 6.8 223.507 7.66C224.627 8.5 225.187 9.66 225.187 11.14V18.22C225.187 18.58 225.267 18.85 225.427 19.03C225.607 19.21 225.817 19.3 226.057 19.3C226.257 19.3 226.477 19.26 226.717 19.18C226.957 19.1 227.147 19.03 227.287 18.97V21.67C226.547 22.09 225.667 22.3 224.647 22.3C223.547 22.3 222.707 22.08 222.127 21.64C221.547 21.18 221.207 20.54 221.107 19.72C219.707 21.44 217.987 22.3 215.947 22.3C214.427 22.3 213.177 21.99 212.197 21.37C211.217 20.75 210.727 19.57 210.727 17.83C210.727 16.41 211.127 15.33 211.927 14.59C212.747 13.83 213.877 13.32 215.317 13.06C216.757 12.8 218.617 12.67 220.897 12.67V11.65C220.897 10.97 220.677 10.42 220.237 10C219.817 9.58 219.127 9.37 218.167 9.37C217.607 9.37 217.127 9.47 216.727 9.67C216.327 9.85 216.017 10.08 215.797 10.36C215.597 10.64 215.497 10.9 215.497 11.14V11.38H211.267C211.227 11.14 211.207 10.96 211.207 10.84C211.207 9.98 211.487 9.21 212.047 8.53C212.627 7.85 213.427 7.32 214.447 6.94C215.467 6.56 216.637 6.37 217.957 6.37H218.587ZM220.897 15.13C218.997 15.13 217.577 15.32 216.637 15.7C215.717 16.06 215.257 16.66 215.257 17.5C215.257 18.16 215.437 18.63 215.797 18.91C216.177 19.17 216.747 19.3 217.507 19.3C218.027 19.3 218.547 19.16 219.067 18.88C219.587 18.6 220.017 18.2 220.357 17.68C220.717 17.16 220.897 16.58 220.897 15.94V15.13ZM233.817 0.399999V22H229.437V0.399999H233.817ZM254.068 5.11H251.668V18.31H254.068V22H244.588V18.31H247.018V5.11H244.588V1.42H254.068V5.11ZM266.876 6.37C268.436 6.37 269.716 6.79 270.716 7.63C271.736 8.47 272.246 9.69 272.246 11.29V22H267.866V12.25C267.866 11.47 267.636 10.83 267.176 10.33C266.736 9.81 266.166 9.55 265.466 9.55C264.686 9.55 264.016 9.85 263.456 10.45C262.896 11.03 262.616 11.74 262.616 12.58V22H258.236V6.67H261.506L261.986 8.92C263.246 7.22 264.876 6.37 266.876 6.37ZM280.876 1.78V6.67H284.446V9.67H280.876V17.26C280.876 18.06 281.026 18.6 281.326 18.88C281.646 19.16 282.066 19.3 282.586 19.3C282.826 19.3 283.136 19.26 283.516 19.18C283.896 19.1 284.206 19.01 284.446 18.91V21.73C284.046 21.89 283.516 22.02 282.856 22.12C282.216 22.24 281.646 22.3 281.146 22.3C279.606 22.3 278.446 21.97 277.666 21.31C276.886 20.65 276.496 19.55 276.496 18.01V9.67H274.816V6.67H276.646L278.176 1.78H280.876ZM294.559 6.37C295.799 6.37 296.949 6.63 298.009 7.15C299.069 7.65 299.919 8.39 300.559 9.37C301.199 10.33 301.519 11.47 301.519 12.79V15.07H291.019C291.019 17.89 292.119 19.3 294.319 19.3C295.239 19.3 295.959 19.05 296.479 18.55C297.019 18.03 297.289 17.27 297.289 16.27H301.489C301.489 17.61 301.169 18.74 300.529 19.66C299.889 20.56 299.039 21.23 297.979 21.67C296.939 22.09 295.799 22.3 294.559 22.3H294.079C292.659 22.3 291.379 22 290.239 21.4C289.099 20.8 288.199 19.94 287.539 18.82C286.899 17.68 286.579 16.33 286.579 14.77V13.9C286.579 12.36 286.909 11.02 287.569 9.88C288.229 8.74 289.119 7.87 290.239 7.27C291.379 6.67 292.659 6.37 294.079 6.37H294.559ZM294.109 9.37C293.229 9.37 292.509 9.68 291.949 10.3C291.409 10.92 291.099 11.71 291.019 12.67H297.079C297.079 11.65 296.839 10.85 296.359 10.27C295.899 9.67 295.149 9.37 294.109 9.37ZM309.169 0.399999V22H304.789V0.399999H309.169ZM317.548 0.399999V22H313.167V0.399999H317.548ZM325.956 3.85H321.516V0.399999H325.956V3.85ZM325.926 6.67V22H321.546V6.67H325.926ZM336.106 6.37C337.326 6.37 338.326 6.49 339.106 6.73C339.926 6.25 340.496 5.76 340.816 5.26C341.136 4.76 341.316 4.31 341.356 3.91H344.776C344.776 6.03 343.716 7.35 341.596 7.87L341.566 7.96C342.626 8.86 343.156 9.94 343.156 11.2C343.156 12.08 342.906 12.89 342.406 13.63C341.906 14.35 341.196 14.93 340.276 15.37C339.376 15.79 338.336 16 337.156 16H335.086C334.486 16 334.016 16.13 333.676 16.39C333.356 16.65 333.196 16.94 333.196 17.26C333.196 17.66 333.346 17.97 333.646 18.19C333.966 18.41 334.446 18.52 335.086 18.52H340.426C341.826 18.52 342.896 18.92 343.636 19.72C344.396 20.5 344.776 21.53 344.776 22.81C344.776 23.73 344.516 24.56 343.996 25.3C343.476 26.04 342.766 26.61 341.866 27.01C340.986 27.43 340.006 27.64 338.926 27.64H332.596C331.376 27.64 330.346 27.3 329.506 26.62C328.686 25.96 328.276 25.04 328.276 23.86C328.276 23.14 328.486 22.49 328.906 21.91C329.346 21.31 329.896 20.86 330.556 20.56C330.096 20.26 329.746 19.89 329.506 19.45C329.266 19.01 329.146 18.53 329.146 18.01C329.146 17.27 329.386 16.63 329.866 16.09C330.346 15.53 330.966 15.13 331.726 14.89C331.046 14.47 330.516 13.94 330.136 13.3C329.756 12.64 329.566 11.94 329.566 11.2C329.566 9.78 330.116 8.62 331.216 7.72C332.336 6.82 333.966 6.37 336.106 6.37ZM336.406 8.98C335.646 8.98 335.016 9.18 334.516 9.58C334.016 9.96 333.766 10.5 333.766 11.2C333.766 11.9 334.016 12.45 334.516 12.85C335.016 13.23 335.646 13.42 336.406 13.42C337.186 13.42 337.826 13.23 338.326 12.85C338.826 12.45 339.076 11.9 339.076 11.2C339.076 10.5 338.826 9.96 338.326 9.58C337.826 9.18 337.186 8.98 336.406 8.98ZM333.766 21.97C333.326 21.97 332.946 22.11 332.626 22.39C332.306 22.69 332.146 23.04 332.146 23.44C332.146 23.84 332.306 24.19 332.626 24.49C332.946 24.79 333.326 24.94 333.766 24.94H338.806C339.326 24.94 339.776 24.78 340.156 24.46C340.536 24.16 340.726 23.8 340.726 23.38C340.726 22.98 340.566 22.64 340.246 22.36C339.926 22.1 339.506 21.97 338.986 21.97H333.766ZM353.651 6.37C354.891 6.37 356.041 6.63 357.101 7.15C358.161 7.65 359.011 8.39 359.651 9.37C360.291 10.33 360.611 11.47 360.611 12.79V15.07H350.111C350.111 17.89 351.211 19.3 353.411 19.3C354.331 19.3 355.051 19.05 355.571 18.55C356.111 18.03 356.381 17.27 356.381 16.27H360.581C360.581 17.61 360.261 18.74 359.621 19.66C358.981 20.56 358.131 21.23 357.071 21.67C356.031 22.09 354.891 22.3 353.651 22.3H353.171C351.751 22.3 350.471 22 349.331 21.4C348.191 20.8 347.291 19.94 346.631 18.82C345.991 17.68 345.671 16.33 345.671 14.77V13.9C345.671 12.36 346.001 11.02 346.661 9.88C347.321 8.74 348.211 7.87 349.331 7.27C350.471 6.67 351.751 6.37 353.171 6.37H353.651ZM353.201 9.37C352.321 9.37 351.601 9.68 351.041 10.3C350.501 10.92 350.191 11.71 350.111 12.67H356.171C356.171 11.65 355.931 10.85 355.451 10.27C354.991 9.67 354.241 9.37 353.201 9.37ZM372.52 6.37C374.08 6.37 375.36 6.79 376.36 7.63C377.38 8.47 377.89 9.69 377.89 11.29V22H373.51V12.25C373.51 11.47 373.28 10.83 372.82 10.33C372.38 9.81 371.81 9.55 371.11 9.55C370.33 9.55 369.66 9.85 369.1 10.45C368.54 11.03 368.26 11.74 368.26 12.58V22H363.88V6.67H367.15L367.63 8.92C368.89 7.22 370.52 6.37 372.52 6.37ZM388.891 6.37C390.071 6.37 391.161 6.63 392.161 7.15C393.181 7.65 393.991 8.39 394.591 9.37C395.211 10.33 395.521 11.47 395.521 12.79H391.171C391.171 11.75 390.941 10.92 390.481 10.3C390.021 9.68 389.341 9.37 388.441 9.37C387.541 9.37 386.831 9.73 386.311 10.45C385.791 11.15 385.531 12.04 385.531 13.12V15.79C385.531 16.79 385.791 17.63 386.311 18.31C386.831 18.97 387.531 19.3 388.411 19.3C389.331 19.3 390.051 19.02 390.571 18.46C391.111 17.88 391.381 17.03 391.381 15.91H395.521C395.521 17.33 395.211 18.52 394.591 19.48C393.991 20.44 393.191 21.15 392.191 21.61C391.191 22.07 390.091 22.3 388.891 22.3H388.411C386.171 22.3 384.391 21.64 383.071 20.32C381.751 18.98 381.091 17.13 381.091 14.77V13.9C381.091 12.34 381.401 11 382.021 9.88C382.661 8.74 383.531 7.87 384.631 7.27C385.731 6.67 386.991 6.37 388.411 6.37H388.891ZM406.092 6.37C407.332 6.37 408.482 6.63 409.542 7.15C410.602 7.65 411.452 8.39 412.092 9.37C412.732 10.33 413.052 11.47 413.052 12.79V15.07H402.552C402.552 17.89 403.652 19.3 405.852 19.3C406.772 19.3 407.492 19.05 408.012 18.55C408.552 18.03 408.822 17.27 408.822 16.27H413.022C413.022 17.61 412.702 18.74 412.062 19.66C411.422 20.56 410.572 21.23 409.512 21.67C408.472 22.09 407.332 22.3 406.092 22.3H405.612C404.192 22.3 402.912 22 401.772 21.4C400.632 20.8 399.732 19.94 399.072 18.82C398.432 17.68 398.112 16.33 398.112 14.77V13.9C398.112 12.36 398.442 11.02 399.102 9.88C399.762 8.74 400.652 7.87 401.772 7.27C402.912 6.67 404.192 6.37 405.612 6.37H406.092ZM405.642 9.37C404.762 9.37 404.042 9.68 403.482 10.3C402.942 10.92 402.632 11.71 402.552 12.67H408.612C408.612 11.65 408.372 10.85 407.892 10.27C407.432 9.67 406.682 9.37 405.642 9.37Z" fill="#19476D"/>
</svg>
