<svg width="36" height="35" viewBox="0 0 36 35" fill="none" xmlns="http://www.w3.org/2000/svg">
<path d="M36 17.5C36 20 31.5 35 18 35C6.5 35 0 20 0 17.5C0 15 6 0 18 0C32 0 36 15 36 17.5Z" fill="#19476D"/>
<ellipse cx="20.5" cy="17.5" rx="11" ry="14.5" fill="white"/>
<path d="M21 24C23.6552 24 25.8076 21.0899 25.8076 17.5C25.8076 15 25.5432 14.5 25.3269 14.5C25.1105 14.5 22.4423 16.5 21.9615 16.5C21.4807 16.5 22.923 12.5 22.923 12C22.923 11.5 22.923 11 21 11C18.5961 11 16.1923 13.9102 16.1923 17.5C16.1923 21.0899 18.3447 24 21 24Z" fill="#19476D"/>
</svg>
