<svg width="108" height="23" viewBox="0 0 108 23" fill="none" xmlns="http://www.w3.org/2000/svg">
<path d="M0.19 22V2.2H9.82C12.26 2.22 14.06 2.69 15.22 3.61C16.38 4.51 16.96 5.82 16.96 7.54C16.96 8.66 16.63 9.63 15.97 10.45C15.31 11.25 14.3 11.76 12.94 11.98V12.01C14.46 12.21 15.59 12.74 16.33 13.6C17.09 14.44 17.47 15.46 17.47 16.66C17.47 18.36 16.87 19.68 15.67 20.62C14.47 21.54 12.67 22 10.27 22H0.19ZM5.17 18.37H9.4C10.34 18.37 11.04 18.18 11.5 17.8C11.96 17.42 12.19 16.87 12.19 16.15C12.19 15.45 11.96 14.92 11.5 14.56C11.04 14.18 10.34 13.99 9.4 13.99H5.17V18.37ZM5.17 10.3H8.92C10.76 10.3 11.68 9.58 11.68 8.14C11.68 6.7 10.76 5.98 8.92 5.98H5.17V10.3ZM25.3778 0.64V16.9C25.3778 17.56 25.4878 18.03 25.7078 18.31C25.9278 18.59 26.2978 18.73 26.8178 18.73C27.1178 18.73 27.3678 18.71 27.5678 18.67C27.7678 18.63 28.0078 18.57 28.2878 18.49L27.9578 21.55C27.5978 21.77 27.1278 21.95 26.5478 22.09C25.9678 22.23 25.3978 22.3 24.8378 22.3C23.2378 22.3 22.0778 21.93 21.3578 21.19C20.6378 20.45 20.2778 19.24 20.2778 17.56V0.64H25.3778ZM32.7023 5.26C31.6623 5.26 30.9023 5.07 30.4223 4.69C29.9623 4.29 29.7323 3.67 29.7323 2.83C29.7323 1.97 29.9623 1.35 30.4223 0.969999C30.9023 0.569999 31.6623 0.37 32.7023 0.37C33.7223 0.37 34.4723 0.569999 34.9523 0.969999C35.4323 1.35 35.6723 1.97 35.6723 2.83C35.6723 3.67 35.4323 4.29 34.9523 4.69C34.4723 5.07 33.7223 5.26 32.7023 5.26ZM35.2523 7V22H30.1523V7H35.2523ZM45.9927 6.7C47.5127 6.7 48.7727 6.92 49.7727 7.36C50.7927 7.78 51.5827 8.35 52.1427 9.07C52.7227 9.77 53.0827 10.53 53.2227 11.35L48.5127 12.91C48.3727 12.05 48.1127 11.41 47.7327 10.99C47.3727 10.55 46.8427 10.33 46.1427 10.33C45.5027 10.33 44.9627 10.48 44.5227 10.78C44.1027 11.06 43.7827 11.52 43.5627 12.16C43.3427 12.78 43.2327 13.58 43.2327 14.56C43.2327 15.54 43.3527 16.34 43.5927 16.96C43.8327 17.56 44.1727 18 44.6127 18.28C45.0527 18.54 45.5727 18.67 46.1727 18.67C46.6727 18.67 47.0827 18.58 47.4027 18.4C47.7427 18.2 48.0227 17.92 48.2427 17.56C48.4627 17.2 48.6027 16.76 48.6627 16.24L53.2527 17.71C53.1127 18.59 52.7327 19.38 52.1127 20.08C51.5127 20.76 50.7127 21.3 49.7127 21.7C48.7127 22.1 47.5427 22.3 46.2027 22.3C44.5627 22.3 43.1327 22 41.9127 21.4C40.6927 20.78 39.7527 19.89 39.0927 18.73C38.4327 17.55 38.1027 16.14 38.1027 14.5C38.1027 12.86 38.4327 11.46 39.0927 10.3C39.7527 9.12 40.6727 8.23 41.8527 7.63C43.0527 7.01 44.4327 6.7 45.9927 6.7ZM72.3742 7L65.1742 14.68L64.2142 14.95L59.9242 19.75L59.8942 14.53L66.7042 7H72.3742ZM61.0042 0.64V22H55.9042V0.64H61.0042ZM65.9542 11.5L72.7042 22H67.0642L62.6242 14.5L65.9542 11.5ZM100.368 22H95.0577L93.6777 17.53H86.8977L85.4877 22H80.2977L87.2577 2.2H93.4377L100.368 22ZM87.8577 14.02H92.7177L90.2877 6.01L87.8577 14.02ZM107.83 2.2V22H102.67V2.2H107.83Z" fill="#19476D"/>
</svg>
